<svg width="32" height="23" viewBox="0 0 32 23" fill="none" xmlns="http://www.w3.org/2000/svg">
<path d="M6.56 0C9.17333 0 11.0667 0.933335 12.24 2.8C12.7733 3.6 13.2 4.58667 13.52 5.76C13.84 6.93334 14 8.16 14 9.44C14 12.2133 13.28 14.72 11.84 16.96C10.4533 19.2 8.37333 20.96 5.6 22.24L4.88 20.8C6.42667 20.16 7.76 19.1733 8.88 17.84C10.0533 16.5067 10.7467 15.1467 10.96 13.76C11.12 13.12 11.2 12.5067 11.2 11.92C11.2 11.3867 11.12 10.88 10.96 10.4C9.78667 11.68 8.24 12.32 6.32 12.32C4.45333 12.32 2.93333 11.7867 1.76 10.72C0.586667 9.6 0 8.08 0 6.16C0 4.34667 0.613333 2.88 1.84 1.76C3.06667 0.586668 4.64 0 6.56 0ZM23.04 0C25.6533 0 27.5467 0.933335 28.72 2.8C29.2533 3.6 29.68 4.58667 30 5.76C30.32 6.93334 30.48 8.16 30.48 9.44C30.48 12.2133 29.76 14.72 28.32 16.96C26.9333 19.2 24.8533 20.96 22.08 22.24L21.36 20.8C22.9067 20.16 24.24 19.1733 25.36 17.84C26.5333 16.5067 27.2267 15.1467 27.44 13.76C27.6 13.12 27.68 12.5067 27.68 11.92C27.68 11.3867 27.6 10.88 27.44 10.4C26.2667 11.68 24.72 12.32 22.8 12.32C20.9333 12.32 19.4133 11.7867 18.24 10.72C17.0667 9.6 16.48 8.08 16.48 6.16C16.48 4.34667 17.0933 2.88 18.32 1.76C19.5467 0.586668 21.12 0 23.04 0Z" transform="translate(0.959961 0.239868)" fill="#DEA000"/>
</svg>
