<svg width="28" height="29" viewBox="0 0 28 29" fill="none" xmlns="http://www.w3.org/2000/svg">
<g opacity="0.7">
<path d="M24.1675 20.3007H23.4106C22.8797 20.3012 22.3563 20.4247 21.8813 20.6618C21.1901 21.0053 20.378 21.0053 19.6868 20.6618C19.4112 20.5265 19.1185 20.4289 18.8168 20.3717L19.7589 13.0504H20.784C21.051 13.0504 21.2674 12.834 21.2674 12.5671V10.6337C21.2674 10.3668 21.051 10.1503 20.784 10.1503H18.8507V8.7003C18.8507 8.57209 18.7997 8.4492 18.709 8.35857L16.4339 6.08344V4.58216L17.1667 3.99634L18.4181 6.49961L19.2832 6.06749L17.9386 3.37862L18.5365 2.9001H20.3007C20.5676 2.9001 20.784 2.68368 20.784 2.41675V0.48335C20.784 0.21642 20.5676 0 20.3007 0H15.4672C13.0659 0.0029001 11.12 1.94887 11.1171 4.35015C11.1171 4.61708 11.3335 4.8335 11.6004 4.8335H12.5671V6.08344L11.2587 7.39187C11.168 7.4825 11.1171 7.60539 11.1171 7.7336V10.1503H10.1504V6.28355C10.1496 6.22367 10.1377 6.16452 10.1151 6.10906C10.1062 6.09027 10.0962 6.07202 10.0851 6.05444C10.0735 6.02913 10.0599 6.00472 10.0445 5.98146L8.21695 3.69763V0.48335C8.21695 0.21642 8.00053 0 7.7336 0H4.8335C4.56657 0 4.35015 0.21642 4.35015 0.48335V3.69763L2.5226 5.98146C2.5072 6.00472 2.4936 6.02913 2.482 6.05444C2.47089 6.07202 2.46086 6.09027 2.45203 6.10906C2.42944 6.16452 2.41747 6.22367 2.41675 6.28355V10.1503H0.48335C0.21642 10.1503 0 10.3668 0 10.6337V12.5671C0 12.834 0.21642 13.0504 0.48335 13.0504H1.50854L3.38732 27.6128C3.41843 27.8539 3.62374 28.0344 3.8668 28.0343H15.2449C15.793 28.6488 16.5772 29.0004 17.4006 29.001H18.1575C18.6884 29.0005 19.2118 28.877 19.6868 28.6399C20.378 28.2964 21.1901 28.2964 21.8813 28.6399C22.3563 28.877 22.8797 29.0005 23.4106 29.001H24.1675C25.7685 28.9994 27.066 27.7019 27.0676 26.1009V23.2008C27.066 21.5998 25.7685 20.3023 24.1675 20.3007ZM18.8507 0.9667H19.8174V1.9334H18.8507V0.9667ZM20.3007 11.117V12.0837H13.5338V11.117H20.3007ZM12.1181 3.8668C12.3605 2.20317 13.786 0.968815 15.4672 0.9667H17.884V2.18474L15.7809 3.8668H12.1181ZM15.4672 4.8335V5.8002H13.5338V4.8335H15.4672ZM12.0837 7.93371L13.2506 6.7669H15.7504L17.884 8.90041V10.1503H12.0837V7.93371ZM11.6004 11.117H12.5671V14.5005C12.5661 14.6846 12.6698 14.8532 12.8344 14.9355L15.7345 16.3856C15.8759 16.4553 15.9831 16.5792 16.0318 16.7292C16.0818 16.8902 16.0644 17.0647 15.9834 17.2126C15.8443 17.4916 15.5054 17.6051 15.2263 17.466C15.2259 17.4658 15.2255 17.4655 15.225 17.4654L13.2626 16.4842C13.0228 16.367 12.7334 16.4664 12.6162 16.7063C12.5841 16.772 12.5673 16.8441 12.5671 16.9172V21.7507C12.5671 22.2847 12.1343 22.7174 11.6004 22.7174V18.3673H10.6337V22.7174H9.667V18.3673H8.7003V22.7174H7.7336V18.3673H6.7669V22.7174C6.23298 22.7174 5.8002 22.2847 5.8002 21.7507V11.117H11.6004ZM5.31685 0.9667H7.25025V3.38345H5.31685V0.9667ZM5.06551 4.35015H7.50159L8.66163 5.8002H3.90547L5.06551 4.35015ZM3.38345 6.7669H9.18365V10.1503H3.38345V6.7669ZM0.9667 12.0837V11.117H4.8335V12.0837H0.9667ZM14.5005 23.2008V26.1009C14.5013 26.4304 14.5586 26.7573 14.6697 27.0676H4.29166L2.48297 13.0504H4.8335V21.7507C4.8335 22.8185 5.69912 23.6841 6.7669 23.6841H11.6004C12.6682 23.6841 13.5338 22.8185 13.5338 21.7507V17.6993L14.7963 18.3306C15.5592 18.7071 16.4829 18.3939 16.8594 17.631C16.861 17.6278 16.8625 17.6246 16.8641 17.6215C17.0513 17.2503 17.0832 16.8199 16.9525 16.4252C16.8237 16.0304 16.5416 15.704 16.1695 15.5194L13.5338 14.2018V13.0504H18.7844L17.8487 20.3007H17.4006C15.7996 20.3023 14.5021 21.5998 14.5005 23.2008ZM26.1009 26.1009C26.1009 27.1687 25.2353 28.0343 24.1675 28.0343H23.4106C23.0299 28.0338 22.6545 27.9451 22.3139 27.7752C21.3502 27.2964 20.2179 27.2964 19.2542 27.7752C18.9136 27.9451 18.5382 28.0338 18.1575 28.0343H17.4006C16.3328 28.0343 15.4672 27.1687 15.4672 26.1009V25.3565C15.9973 25.8355 16.6862 26.1007 17.4006 26.1009H18.1575C18.6884 26.1004 19.2118 25.9769 19.6868 25.7398C20.378 25.3963 21.1901 25.3963 21.8813 25.7398C22.3563 25.9769 22.8797 26.1004 23.4106 26.1009H24.1675C24.8819 26.1007 25.5708 25.8355 26.1009 25.3565V26.1009ZM24.1675 25.1342H23.4106C23.0299 25.1337 22.6545 25.045 22.3139 24.8751C21.3502 24.3963 20.2179 24.3963 19.2542 24.8751C18.9136 25.045 18.5382 25.1337 18.1575 25.1342H17.4006C16.3328 25.1342 15.4672 24.2686 15.4672 23.2008C15.4672 22.133 16.3328 21.2674 17.4006 21.2674H18.1575C18.5382 21.2679 18.9136 21.3566 19.2542 21.5265C20.218 22.005 21.3501 22.005 22.3139 21.5265C22.6545 21.3566 23.0299 21.2679 23.4106 21.2674H24.1675C25.2353 21.2674 26.1009 22.133 26.1009 23.2008C26.1009 24.2686 25.2353 25.1342 24.1675 25.1342Z" fill="#A400DE"/>
<path d="M0.9667 0H0V0.9667H0.9667V0Z" transform="translate(23.6841 22.2341)" fill="#A400DE"/>
<path d="M0.9667 0H0V0.9667H0.9667V0Z" transform="translate(18.8506 22.2341)" fill="#A400DE"/>
<path d="M0.9667 0H0V0.9667H0.9667V0Z" transform="translate(16.9172 22.7175)" fill="#A400DE"/>
<path d="M0.9667 0H0V0.9667H0.9667V0Z" transform="translate(21.7507 22.7175)" fill="#A400DE"/>
</g>
</svg>
