<svg width="22" height="37" viewBox="0 0 22 37" fill="none" xmlns="http://www.w3.org/2000/svg">
<g opacity="0.7">
<path d="M17.5753 10.9088H17.1299L13.1863 8.65555L12.6627 7.6077C12.5603 7.40225 12.3506 7.27255 12.1209 7.27255H11.5149V6.06046C11.8494 6.06046 12.1209 5.78956 12.1209 5.45441V1.81814C12.1209 0.815738 11.3052 0 10.3028 0H7.8786C6.8762 0 6.06046 0.815738 6.06046 1.81814V5.45441C6.06046 5.78956 6.33197 6.06046 6.66651 6.06046V7.27255H6.06046C5.83077 7.27255 5.62108 7.40225 5.51805 7.6077L4.99442 8.65555L1.05149 10.9088H0.606046C0.271509 10.9088 0 11.1797 0 11.5149C0 11.85 0.271509 12.1209 0.606046 12.1209V35.7567C0.606046 36.0919 0.877555 36.3628 1.21209 36.3628H16.9693C17.3038 36.3628 17.5753 36.0919 17.5753 35.7567V12.1209C17.9099 12.1209 18.1814 11.85 18.1814 11.5149C18.1814 11.1797 17.9099 10.9088 17.5753 10.9088ZM16.3632 13.333H13.333V14.5451H16.3632V15.7572H1.81814V14.5451H9.69674V13.333H1.81814V12.1209H16.3632V13.333ZM1.81814 31.5144H16.3632V32.7265H1.81814V31.5144ZM1.81814 30.3023V16.9693H16.3632V30.3023H1.81814ZM7.27255 1.81814C7.27255 1.4836 7.54467 1.21209 7.8786 1.21209H10.3028C10.6367 1.21209 10.9088 1.4836 10.9088 1.81814V4.84837H7.27255V1.81814ZM7.8786 6.06046H10.3028V7.27255H7.8786V6.06046ZM5.75501 9.61674C5.85865 9.55734 5.94289 9.46886 5.99622 9.36159L6.435 8.48464H11.7464L12.1852 9.36159C12.2385 9.46886 12.3227 9.55734 12.4264 9.61674L14.6869 10.9088H3.49446L5.75501 9.61674ZM1.81814 35.1507V33.9386H16.3632V35.1507H1.81814Z" transform="translate(0 0.00144958)" fill="#0C6BA0"/>
<path d="M1.21209 0H0V1.21209H1.21209V0Z" transform="translate(10.9087 13.3339)" fill="#0C6BA0"/>
<path d="M4.84837 0C2.1751 0 0 2.1751 0 4.84837C0 7.52164 2.1751 9.69674 4.84837 9.69674C7.52164 9.69674 9.69674 7.52164 9.69674 4.84837C9.69674 2.1751 7.52164 0 4.84837 0ZM4.84837 8.48464C2.84296 8.48464 1.21209 6.85377 1.21209 4.84837C1.21209 2.84296 2.84296 1.21209 4.84837 1.21209C6.85377 1.21209 8.48464 2.84296 8.48464 4.84837C8.48464 6.85377 6.85377 8.48464 4.84837 8.48464Z" transform="translate(4.24219 18.7883)" fill="#0C6BA0"/>
<path d="M2.42418 0C1.08725 0 0 1.08725 0 2.42418C0 3.76112 1.08725 4.84837 2.42418 4.84837C3.76112 4.84837 4.84837 3.76112 4.84837 2.42418C4.84837 1.08725 3.76112 0 2.42418 0ZM2.42418 3.63628C1.75572 3.63628 1.21209 3.09265 1.21209 2.42418C1.21209 1.75572 1.75572 1.21209 2.42418 1.21209C3.09265 1.21209 3.63628 1.75572 3.63628 2.42418C3.63628 3.09265 3.09265 3.63628 2.42418 3.63628Z" transform="translate(6.6665 21.2125)" fill="#0C6BA0"/>
<path d="M8.07011 4.88076L4.33989 3.63715H7.8786C8.21313 3.63715 8.48464 3.36625 8.48464 3.03111C8.48464 2.69596 8.21313 2.42506 7.8786 2.42506H4.33989L8.07011 1.18146C8.38768 1.076 8.55919 0.732982 8.45313 0.414808C8.34707 0.0978457 8.00465 -0.0754835 7.68648 0.0317867L0.413929 2.45597C0.406656 2.45839 0.401809 2.46446 0.394537 2.46749C0.380597 2.47294 0.367264 2.47718 0.353931 2.48324C0.322416 2.49779 0.296963 2.52021 0.268479 2.54021C0.243025 2.55779 0.215753 2.57112 0.193329 2.59172C0.184238 2.60021 0.175754 2.60869 0.166664 2.61778C0.144846 2.64081 0.130906 2.66869 0.113331 2.69536C0.0945433 2.72324 0.0727256 2.74808 0.0587865 2.77839C0.0527261 2.79172 0.0478771 2.80505 0.0430287 2.81839C0.0399985 2.82626 0.0339374 2.83111 0.0315133 2.83899C0.0236347 2.86202 0.027877 2.88505 0.0230287 2.90808C0.0157561 2.94141 0.00666615 2.97293 0.00484802 3.00808C0.00424197 3.01656 0 3.02323 0 3.03111C0 3.03899 0.00424197 3.04565 0.00484802 3.05414C0.00606011 3.08868 0.0157561 3.1202 0.0230287 3.15414C0.027877 3.17717 0.0236347 3.20019 0.0315133 3.22322C0.0345435 3.23232 0.0406062 3.23838 0.0442425 3.24686C0.0490909 3.25959 0.0539378 3.2711 0.0593922 3.28383C0.0684829 3.30322 0.0806047 3.31959 0.0915135 3.33777C0.111513 3.37171 0.132725 3.40261 0.158785 3.4311C0.170906 3.44443 0.181208 3.45837 0.193935 3.47049C0.205449 3.48079 0.216963 3.48988 0.229084 3.49958C0.260599 3.52504 0.295145 3.54443 0.331508 3.56322C0.352113 3.57413 0.371507 3.58564 0.393931 3.59412C0.396355 3.59534 0.398777 3.59655 0.401202 3.59776C0.406656 3.59958 0.409688 3.60382 0.415142 3.60564L0.421202 3.60746C0.421202 3.60746 0.421807 3.60746 0.422413 3.60806L7.68769 6.02982C7.75072 6.05104 7.81557 6.06134 7.8786 6.06134C8.13253 6.06134 8.36889 5.90074 8.45374 5.6468C8.55979 5.32923 8.38768 4.98621 8.07011 4.88076Z" transform="translate(13.333)" fill="#0C6BA0"/>
</g>
</svg>
