<svg width="31" height="24" viewBox="0 0 31 24" fill="none" xmlns="http://www.w3.org/2000/svg">
<path d="M23.92 22.24C21.3067 22.24 19.4133 21.3067 18.24 19.44C17.7067 18.64 17.28 17.6533 16.96 16.48C16.64 15.3067 16.48 14.08 16.48 12.8C16.48 10.0267 17.1733 7.52 18.56 5.28C20 3.04 22.1067 1.28 24.88 0L25.6 1.44C24.0533 2.08 22.6933 3.06667 21.52 4.4C20.4 5.73334 19.7333 7.09333 19.52 8.48C19.36 9.12 19.28 9.73333 19.28 10.32C19.28 10.8533 19.36 11.36 19.52 11.84C20.6933 10.56 22.24 9.92 24.16 9.92C26.0267 9.92 27.5467 10.48 28.72 11.6C29.8933 12.6667 30.48 14.16 30.48 16.08C30.48 17.8933 29.8667 19.3867 28.64 20.56C27.4133 21.68 25.84 22.24 23.92 22.24ZM7.44 22.24C4.82667 22.24 2.93333 21.3067 1.76 19.44C1.22667 18.64 0.8 17.6533 0.48 16.48C0.16 15.3067 0 14.08 0 12.8C0 10.0267 0.693333 7.52 2.08 5.28C3.52 3.04 5.62667 1.28 8.4 0L9.12 1.44C7.57333 2.08 6.21333 3.06667 5.04 4.4C3.92 5.73334 3.25333 7.09333 3.04 8.48C2.88 9.12 2.8 9.73333 2.8 10.32C2.8 10.8533 2.88 11.36 3.04 11.84C4.21333 10.56 5.76 9.92 7.68 9.92C9.54667 9.92 11.0667 10.48 12.24 11.6C13.4133 12.6667 14 14.16 14 16.08C14 17.8933 13.3867 19.3867 12.16 20.56C10.9333 21.68 9.36 22.24 7.44 22.24Z" transform="translate(0.52002 0.839844)" fill="#DEA000"/>
</svg>
