<svg width="85" height="67" viewBox="0 0 85 67" fill="none" xmlns="http://www.w3.org/2000/svg">
<path opacity="0.4" d="M71.729 51.4113H2.98876C1.33807 51.4113 0 50.0573 0 48.387V3.02425C0 1.35396 1.33807 0 2.98876 0H71.729C73.3797 0 74.7178 1.35396 74.7178 3.02425V48.387C74.7176 50.0573 73.3797 51.4113 71.729 51.4113Z" transform="translate(2.74194 2.0564)" fill="white"/>
<path opacity="0.1" d="M22.8187 0H6.08497C2.72431 0 0 2.72432 0 6.08497V12.1699H19.7763C21.4567 12.1699 22.8188 10.8078 22.8188 9.12737V0H22.8187Z" transform="translate(54.6702 40.9789)" fill="#000080"/>
<path opacity="0.8" d="M13.6911 12.1699H1.5212C0.681163 12.1699 0 11.4888 0 10.6487V1.5212C0 0.681162 0.681163 0 1.5212 0H13.6911C14.5312 0 15.2123 0.681162 15.2123 1.5212V10.6487C15.2125 11.4888 14.5313 12.1699 13.6911 12.1699Z" transform="translate(10.5537 12.075)" fill="#FFC850"/>
<path opacity="0.7" d="M6.84566 13.6913C10.6264 13.6913 13.6913 10.6264 13.6913 6.84565C13.6913 3.0649 10.6264 0 6.84566 0C3.06491 0 0 3.0649 0 6.84565C0 10.6264 3.06491 13.6913 6.84566 13.6913Z" transform="translate(45.5425 10.5536)" fill="#F2427F"/>
<path opacity="0.7" d="M6.84565 13.6913C10.6264 13.6913 13.6913 10.6264 13.6913 6.84565C13.6913 3.0649 10.6264 0 6.84565 0C3.0649 0 0 3.0649 0 6.84565C0 10.6264 3.0649 13.6913 6.84565 13.6913Z" transform="translate(54.6699 10.5536)" fill="#FFC850"/>
<path d="M0 5.06896C0 7.08837 0.890839 8.88499 2.28188 10.1379C3.67293 8.88499 4.56377 7.08837 4.56377 5.06896C4.56377 3.04954 3.67293 1.25292 2.28188 0C0.891005 1.25292 0 3.04954 0 5.06896Z" transform="translate(54.6699 12.3303)" fill="#FF8C66"/>
<path opacity="0.7" d="M21.2977 19.7764H3.04257C1.36216 19.7764 0 18.4143 0 16.7339V3.04257C0 1.36216 1.36216 0 3.04257 0H21.2977C22.9781 0 24.3402 1.36216 24.3402 3.04257V16.7339C24.3401 18.4143 22.9781 19.7764 21.2977 19.7764Z" transform="translate(59.2336 45.5424)" fill="#FFDC64"/>
<path opacity="0.7" d="M6.08514 9.12754V0H3.04257C1.36216 0 0 1.36216 0 3.04257V16.7339C0 18.4143 1.36216 19.7764 3.04257 19.7764H21.2977C22.9779 19.7764 24.3402 18.4141 24.3402 16.7339V15.2127H12.1703C8.80946 15.2127 6.08514 12.4882 6.08514 9.12754Z" transform="translate(59.2336 45.5424)" fill="#FFC850"/>
<path opacity="0.5" d="M2.28188 4.56377C3.54213 4.56377 4.56377 3.54213 4.56377 2.28188C4.56377 1.02163 3.54213 0 2.28188 0C1.02163 0 0 1.02163 0 2.28188C0 3.54213 1.02163 4.56377 2.28188 4.56377Z" transform="translate(69.1218 51.6276)" fill="#464655"/>
<path opacity="0.5" d="M4.46864 52.2225H53.1487C53.6603 52.2225 54.075 52.6371 54.075 53.1486C54.075 53.6601 53.6602 54.0748 53.1487 54.0748H4.46864C2.28078 54.0748 0.5 52.294 0.5 50.1062V4.46864C0.5 2.28078 2.28078 0.5 4.46864 0.5H74.4466C76.6344 0.5 78.4152 2.28078 78.4152 4.46864V24.2453C78.4152 24.7568 78.0004 25.1715 77.489 25.1715C76.9774 25.1715 76.5627 24.7567 76.5627 24.2453V4.46864C76.5627 3.30116 75.6139 2.35232 74.4464 2.35232H4.46864C3.30116 2.35232 2.35231 3.30116 2.35231 4.46864V50.1062C2.35231 51.2737 3.30116 52.2225 4.46864 52.2225Z" fill="black" stroke="#F5F5FA"/>
<path opacity="0.5" d="M8.28729 12.1701V12.8201H8.93729H15.1174C15.5288 12.8201 15.8625 12.4864 15.8625 12.075V2.94744C15.8625 2.53598 15.5288 2.20231 15.1174 2.20231H8.93729H8.28729V2.85231V6.08497V6.73497H8.93729H10.5536C10.9823 6.73497 11.3299 7.08257 11.3299 7.51121C11.3299 7.93992 10.9823 8.28745 10.5536 8.28745H8.93729H8.28729V8.93745V12.1701ZM6.73497 2.85231V2.20231L2.94744 12.8199H2.94829H6.08497H6.73497V12.1699V2.85231ZM17.4148 2.94744V12.075C17.4148 13.3413 16.3837 14.3724 15.1174 14.3724H2.94744C1.68113 14.3724 0.65 13.3413 0.65 12.075V2.94744C0.65 1.68113 1.68113 0.65 2.94744 0.65H15.1174C16.3837 0.65 17.4148 1.68113 17.4148 2.94744Z" transform="translate(9.12744 10.6487)" fill="black" stroke="#F5F5FA" strokeWidth="1.3"/>
<path opacity="0.5" d="M11.601 3.20807L11.1862 3.77999C10.2693 5.04432 9.72754 6.59517 9.72754 8.27173C9.72754 9.9024 10.2462 11.4684 11.1834 12.7643L11.5964 13.3354L10.9667 13.652C10.1554 14.0599 9.24008 14.2911 8.27177 14.2911L11.601 3.20807ZM11.601 3.20807L10.9695 2.89138M11.601 3.20807L10.9695 2.89138M10.9695 2.89138C10.1391 2.47497 9.21685 2.25231 8.2719 2.25231C4.95225 2.25231 2.25248 4.95208 2.25248 8.27173M10.9695 2.89138L2.25248 8.27173M2.25248 8.27173C2.25248 11.5913 4.95219 14.2913 8.27173 14.2911L2.25248 8.27173ZM12.508 1.87507L12.8396 2.09483L13.1711 1.87496C14.3848 1.06998 15.8375 0.6 17.3994 0.6C21.6292 0.6 25.0713 4.04215 25.0713 8.27189C25.0713 12.5016 21.6292 15.9438 17.3994 15.9438C15.8874 15.9438 14.4142 15.4949 13.1646 14.6676L12.833 14.448L12.5016 14.6679C11.2876 15.4735 9.83431 15.9438 8.2719 15.9438C4.04216 15.9438 0.6 12.5016 0.6 8.27189C0.6 4.04215 4.04216 0.6 8.2719 0.6C9.78804 0.6 11.2591 1.04733 12.508 1.87507ZM14.4854 12.7632L14.0705 13.3353L14.7024 13.6519C15.533 14.0679 16.4559 14.2911 17.3996 14.2911C20.7193 14.2911 23.419 11.5914 23.419 8.27173C23.419 4.95205 20.7191 2.25231 17.3994 2.25231C14.0798 2.25231 11.38 4.95208 11.38 8.27173C11.38 9.43505 11.717 10.5559 12.3296 11.5135L12.8341 12.3021L13.3399 11.5143C13.9409 10.5781 14.2915 9.46484 14.2915 8.27173C14.2915 7.81536 14.6613 7.44549 15.1177 7.44549C15.574 7.44549 15.944 7.81548 15.944 8.27173C15.944 9.94827 15.4022 11.4988 14.4854 12.7632Z" transform="translate(44.1162 9.12756)" fill="white" stroke="black" strokeWidth="1.2"/>
<path opacity="0.5" d="M0.5 1.42624C0.5 0.914677 0.914767 0.5 1.42624 0.5H13.5962C14.1077 0.5 14.5224 0.914766 14.5224 1.42624C14.5224 1.93781 14.1077 2.35248 13.5962 2.35248H1.42624C0.914677 2.35248 0.5 1.93771 0.5 1.42624Z" transform="translate(9.1272 33.4677)" fill="black" stroke="#F5F5FA"/>
<path opacity="0.5" d="M1.42624 0.5H45.5426C46.0542 0.5 46.4688 0.914639 46.4688 1.42624C46.4688 1.9378 46.054 2.35248 45.5426 2.35248H1.42624C0.914674 2.35248 0.5 1.93771 0.5 1.42624C0.5 0.914677 0.914767 0.5 1.42624 0.5Z" transform="translate(9.1272 42.5952)" fill="black" stroke="#F5F5FA"/>
<path opacity="0.5" d="M0.5 1.42624C0.5 0.914677 0.914767 0.5 1.42624 0.5H13.5962C14.1077 0.5 14.5224 0.914767 14.5224 1.42624C14.5224 1.9378 14.1077 2.35248 13.5962 2.35248H1.42624C0.914677 2.35248 0.5 1.93771 0.5 1.42624Z" transform="translate(27.3823 33.4677)" fill="black" stroke="#F5F5FA"/>
<path opacity="0.5" d="M10.5538 0.5H1.42624C0.914767 0.5 0.5 0.914677 0.5 1.42624C0.5 1.93771 0.914677 2.35248 1.42624 2.35248H10.5538C11.0652 2.35248 11.48 1.93786 11.48 1.42635L10.5538 0.5ZM10.5538 0.5C11.0651 0.5 11.4799 0.914547 11.48 1.42624L10.5538 0.5Z" transform="translate(45.6377 33.4677)" fill="black" stroke="#F5F5FA"/>
<path opacity="0.5" d="M23.6498 16.9683V17.3271L23.9898 17.442C25.5601 17.9725 26.6924 19.4586 26.6924 21.2024V34.8937C26.6924 37.0815 24.9116 38.8623 22.7237 38.8623H4.46864C2.28078 38.8623 0.5 37.0815 0.5 34.8937V21.2024C0.5 19.4586 1.63229 17.9724 3.20256 17.442L3.54257 17.3272V16.9683V10.5536C3.54257 5.01041 8.05298 0.5 13.5962 0.5C19.1394 0.5 23.6498 5.01041 23.6498 10.5536V16.9683ZM21.2975 17.2337H21.7975V16.7337V10.5536C21.7975 6.03096 18.1188 2.35231 13.5962 2.35231C9.07352 2.35231 5.3949 6.03096 5.39472 10.5536V10.5536V16.7337V17.2337H5.89472H21.2975ZM22.7237 37.01C23.8912 37.01 24.8401 36.0611 24.8401 34.8937V21.2024C24.8401 20.0349 23.8912 19.086 22.7237 19.086H4.46864C3.30116 19.086 2.35231 20.0349 2.35231 21.2024V34.8937C2.35231 36.0611 3.30116 37.01 4.46864 37.01H22.7237Z" transform="translate(57.8076 27.3826)" fill="black" stroke="#F5F5FA"/>
<path d="M3.03188 6.63095V7.13021V9.03258C3.03188 9.406 3.33465 9.70882 3.70813 9.70882C4.08166 9.70882 4.38437 9.40611 4.38437 9.03258V7.13021V6.63095L4.84495 6.4383C5.91549 5.99051 6.66623 4.9337 6.66625 3.70819L3.03188 6.63095ZM3.03188 6.63095L2.5713 6.4383M3.03188 6.63095L2.5713 6.4383M2.5713 6.4383C1.50074 5.99051 0.75 4.93367 0.75 3.70813C0.75 2.07771 2.07783 0.75 3.70813 0.75M2.5713 6.4383L3.70813 0.75M3.70813 0.75C5.33834 0.75 6.66608 2.07764 6.66625 3.70813L3.70813 0.75ZM5.31377 3.70796C5.31377 2.8222 4.59426 2.10231 3.70813 2.10231C2.82199 2.10231 2.10248 2.8222 2.10248 3.70796C2.10248 4.59383 2.82226 5.31361 3.70813 5.31361C4.59389 5.31361 5.31377 4.59409 5.31377 3.70796Z" transform="translate(67.6956 50.2013)" fill="black" fill-opacity="0.5" stroke="#F5F5FA" strokeWidth="1.5"/>
</svg>
