<svg width="81" height="80" viewBox="0 0 81 80" fill="none" xmlns="http://www.w3.org/2000/svg">
<path opacity="0.2" d="M12.2196 2.33121V0L0 9.51977L0.75694 24.3089L4.84469 20.2051C9.56672 15.4647 12.2196 9.03521 12.2196 2.33121Z" transform="translate(44.4045 48.9014)" fill="#000080"/>
<path opacity="0.2" d="M0 12.4617L13.0349 13.1341L23.6433 0.0232477L22.8425 0C16.1647 0 9.76025 2.6631 5.03823 7.40358L0 12.4617Z" transform="translate(11.1587 27.802)" fill="#000080"/>
<path opacity="0.2" d="M20.8739 16.4228L0 42.2222C0.657588 43.4356 1.53093 44.8757 2.67432 46.4156C4.21245 47.5669 5.64935 48.4456 6.85516 49.1042C15.342 42.4927 23.829 35.881 32.3157 29.2696C41.5969 22.0391 47.6953 11.5395 49.4612 0C38.2769 1.70859 28.066 7.53347 20.8739 16.4228Z" transform="translate(28.5564 9.24365)" fill="#FCB561"/>
<path opacity="0.7" d="M11.2946 5.88394L5.37586 0L0 6.40682C0.319954 7.08551 0.735503 7.86489 1.27012 8.69075C2.64772 9.79762 3.98386 10.5537 5.06044 11.0653C6.95576 9.52165 9.35659 7.47049 11.2946 5.88394Z" transform="translate(21.6106 51.3297)" fill="#F2427F"/>
<path opacity="0.7" d="M5.11505 10.2701C7.94001 10.2701 10.2301 7.97104 10.2301 5.13504C10.2301 2.29903 7.94001 0 5.11505 0C2.29009 0 0 2.29903 0 5.13504C0 7.97104 2.29009 10.2701 5.11505 10.2701Z" transform="translate(52.5024 17.9152)" fill="#F2427F"/>
<path opacity="0.2" d="M7.38993 0L3.86668 1.76121C1.72713 2.83069 0.312445 4.95834 0.14926 7.35238L0.000313339 9.53688C-0.000312489 9.54631 0.000469371 9.55542 0 9.565L1.87451 9.4362C4.25907 9.27238 6.37859 7.85217 7.44391 5.70425L9.31482 1.93226L7.38993 0Z" transform="translate(9.6062 63.8707)" fill="#FF991F"/>
<path opacity="0.5" d="M1.57396 3.16022C2.44323 3.16022 3.14791 2.45278 3.14791 1.58011C3.14791 0.707443 2.44323 0 1.57396 0C0.704684 0 0 0.707443 0 1.58011C0 2.45278 0.704684 3.16022 1.57396 3.16022Z" transform="translate(0 76.7898)" fill="black"/>
<path opacity="0.5" d="M1.57083 3.15394C2.43837 3.15394 3.14166 2.4479 3.14166 1.57697C3.14166 0.706031 2.43837 0 1.57083 0C0.703285 0 0 0.706031 0 1.57697C0 2.4479 0.703285 3.15394 1.57083 3.15394Z" transform="translate(40.2039 36.7188)" fill="black"/>
<path opacity="0.5" d="M9.7202 9.75707L9.72017 9.7571C8.04512 11.4385 5.31993 11.4386 3.64509 9.7571L9.7202 9.75707ZM9.7202 9.75707C11.3936 8.07716 11.3935 5.3465 9.72004 3.66648C8.91014 2.85341 7.82913 2.40362 6.68255 2.40362C5.53597 2.40362 4.45496 2.85341 3.64506 3.66648C1.97159 5.34648 1.97153 8.07713 3.64503 9.75704L9.7202 9.75707ZM10.8787 2.49513L10.8787 2.49516C13.1939 4.81942 13.1939 8.60428 10.8787 10.9287C9.72197 12.0898 8.20332 12.6706 6.68255 12.6706C5.16132 12.6706 3.64347 12.0901 2.48641 10.9287C0.171206 8.60444 0.171183 4.81958 2.48641 2.49516C3.6086 1.36858 5.09663 0.75 6.68255 0.75C8.26851 0.75 9.7565 1.36845 10.8787 2.49513Z" transform="translate(50.9346 16.3389)" fill="black" stroke="#F5F5FA" strokeWidth="1.5"/>
<path opacity="0.5" d="M11.1201 9.59037L11.1201 9.59033L12.991 5.8184C12.991 5.81838 12.991 5.81835 12.991 5.81833C13.2309 5.33499 13.8131 5.1406 14.2914 5.37971C14.771 5.61956 14.9684 6.20623 14.728 6.69086L14.728 6.69087L12.8571 10.4627L12.8571 10.4627C11.6431 12.9103 9.20004 14.5466 6.4853 14.7332L6.52643 15.3317L6.4853 14.7332L4.3093 14.8827L4.30895 14.8827C4.23011 14.8882 4.15086 14.8909 4.07194 14.8909C3.15504 14.8909 2.27138 14.5261 1.61775 13.8699C0.907737 13.1571 0.539464 12.1711 0.608144 11.1641L0.608145 11.1641L0.75709 8.97975C0.757091 8.97974 0.757091 8.97974 0.757092 8.97973C0.943259 6.25136 2.57496 3.79856 5.01127 2.58059C5.01127 2.58059 5.01127 2.58059 5.01128 2.58059L8.76843 0.702365L8.76844 0.702359C9.24679 0.463217 9.82918 0.657735 10.0688 1.14097L10.0689 1.14106C10.3092 1.62549 10.1119 2.21231 9.63213 2.45217L5.87498 4.33039L5.87493 4.33041C4.05066 5.2426 2.83329 7.07443 2.69417 9.11356L2.69417 9.11358L2.54523 11.2979L2.54521 11.2981C2.5041 11.9041 2.80998 12.3068 2.98926 12.4867C3.1686 12.6668 3.57017 12.9742 4.17606 12.9335L4.17706 12.9335L6.35303 12.7839C8.38746 12.6443 10.2122 11.4205 11.1201 9.59037Z" transform="translate(5.06128 59.5483)" fill="black" stroke="#F5F5FA" strokeWidth="1.2"/>
<path opacity="0.5" d="M29.2916 58.9494L29.2916 58.9494L29.2165 59.0123C28.4207 59.6788 27.6058 60.3612 26.8477 60.9872L26.5351 61.2453L26.179 61.0517C24.6193 60.2036 23.207 59.1447 21.9722 57.8947C20.7763 56.6842 19.7592 55.3067 18.9397 53.7908L18.7458 53.4322L19.0078 53.1198L22.3992 49.078L22.8876 48.4959L23.3406 49.106C24.3475 50.4621 25.4495 51.7469 26.6398 52.9506C26.6418 52.9525 26.644 52.9546 26.6463 52.957L29.2916 58.9494ZM29.2916 58.9494L29.3387 58.9099C29.8697 58.4652 30.4077 58.0145 30.9331 57.5766L31.5218 57.086L30.9043 56.6322C29.3953 55.5234 27.973 54.2974 26.6508 52.9615L29.2916 58.9494ZM76.2734 0.60641L76.2742 0.606358C77.1332 0.550235 77.9811 0.867919 78.597 1.47702C79.2123 2.08608 79.5417 2.93296 79.499 3.80011L79.499 3.80039L79.4616 4.56779C78.7948 18.2406 72.2345 30.8941 61.4631 39.2854L57.8228 42.1212L57.5915 42.3014V42.5946V51.2325C57.5915 58.2473 54.8719 64.8385 49.9317 69.798L40.704 79.0618L40.7039 79.0619C40.5184 79.2482 40.2705 79.3473 40.0181 79.3473C39.9021 79.3473 39.7847 79.3262 39.6706 79.2822C39.3135 79.1442 39.069 78.8072 39.0491 78.4204C39.0491 78.4204 39.0491 78.4204 39.0491 78.4204L38.0412 58.7287L37.9823 57.5779L37.0733 58.2861L36.0027 59.1201L36.0025 59.1202C35.8289 59.2556 35.6195 59.3246 35.4082 59.3246C35.2499 59.3246 35.091 59.2856 34.9454 59.2062C34.4889 58.9569 34.0383 58.6962 33.5921 58.4266L33.2277 58.2065L32.8996 58.4777C32.1396 59.1059 31.3266 59.7868 30.5337 60.451L30.4934 60.4847C29.3924 61.407 28.2611 62.3546 27.2791 63.1544C27.1027 63.2979 26.8863 63.3719 26.6681 63.3719C26.5274 63.3719 26.3861 63.3412 26.2541 63.2785L26.2539 63.2784C24.1258 62.2672 22.2225 60.9194 20.5954 59.2723L20.5954 59.2723C19.0069 57.6645 17.7029 55.7923 16.7194 53.7062C16.5564 53.3595 16.6097 52.9495 16.8549 52.6572C16.8549 52.6572 16.8549 52.6572 16.8549 52.6572L21.487 47.1367L21.7644 46.8061L21.5392 46.438C21.21 45.8998 20.8946 45.353 20.5936 44.7976L20.5936 44.7975C20.4047 44.4492 20.4443 44.0206 20.6931 43.7132L20.2266 43.3358L20.6931 43.7131L21.4894 42.7288L22.2304 41.8129L21.0539 41.7522L1.52117 40.7448L1.52094 40.7448C1.13942 40.7252 0.803325 40.4816 0.664986 40.1205L0.664966 40.1204C0.526641 39.7594 0.613461 39.3505 0.885246 39.0776L10.1128 29.8139C15.0529 24.8546 21.6175 22.1251 28.6027 22.1251C28.6139 22.1251 28.6229 22.1252 28.6303 22.1254L28.631 22.1254L37.6403 22.391L37.9374 22.3998L38.1244 22.1687L41.5671 17.9139L41.1006 17.5365L41.5671 17.9139C49.7467 7.80398 61.8646 1.52974 74.8108 0.700022L76.2734 0.60641ZM4.75443 37.953L3.80481 38.9064L5.14862 38.9757L23.4447 39.9194L23.7498 39.9351L23.942 39.6975L35.6309 25.2504L36.3926 24.3089L35.1822 24.2733L28.5977 24.0791L28.5885 24.0788L28.5794 24.0789C22.1224 24.0851 16.0497 26.6136 11.484 31.1972L4.75443 37.953ZM55.6505 51.2325V50.6325H55.6503V45.0422V43.8142L54.6816 44.5688L40.0984 55.9296L39.8519 56.1216L39.8679 56.4336L40.807 74.7779L40.8762 76.1295L41.8313 75.1707L48.5608 68.4149C53.1322 63.8256 55.6505 57.7216 55.6505 51.2325ZM34.967 56.9767L35.3181 57.1827L35.6393 56.9325L60.275 37.7404C70.5977 29.6987 76.8841 17.5725 77.5229 4.47216L77.5604 3.70498L77.5605 3.70476C77.5812 3.27752 77.3617 2.99518 77.2364 2.87102L77.2358 2.87045C77.1088 2.74501 76.823 2.52996 76.3977 2.55645L76.3967 2.55651L74.9341 2.65013L74.9724 3.2489L74.9341 2.65013C62.524 3.44528 50.9119 9.45836 43.0727 19.1474L22.8732 44.1133L22.6127 44.4352L22.8213 44.7929C23.9927 46.8022 25.3682 48.6802 26.9208 50.4057L27.3447 50.8768L27.7919 50.4279L36.0898 42.0976C36.4687 41.7171 37.0821 41.7171 37.4611 42.0975C37.8413 42.4793 37.8412 43.0994 37.4611 43.4809L29.1554 51.819L28.7148 52.2614L29.1743 52.6841C30.9479 54.3156 32.8865 55.7563 34.967 56.9767Z" transform="translate(0.00439453)" fill="#292929" stroke="#F5F5FA" strokeWidth="1.2"/>
</svg>
