<svg width="25" height="36" viewBox="0 0 25 36" fill="none" xmlns="http://www.w3.org/2000/svg">
<g opacity="0.7">
<path d="M23.5124 34.3786H19.728L8.57961 0.41132C8.47651 0.0970702 8.14011 -0.0735179 7.82812 0.0305129C7.51622 0.134384 7.34706 0.473323 7.45008 0.787573L13.6201 19.5867L0.594782 19.5863C0.266224 19.5863 0 19.8546 0 20.1856V29.3623C0 29.5413 0.0795423 29.711 0.216739 29.8249C0.324117 29.914 0.457982 29.9615 0.594782 29.9615C0.632769 29.9615 0.671073 29.9578 0.70898 29.9503L1.10043 29.8731L1.70528 35.1833C1.73978 35.4859 1.99395 35.7143 2.29618 35.7143H12.0801C12.3824 35.7143 12.6366 35.4859 12.671 35.1833L13.115 31.2864C13.1184 31.2858 13.1219 31.2855 13.1253 31.2848C14.55 30.9956 15.411 30.3399 15.6846 29.3362C16.0132 28.1309 15.4075 26.514 13.8852 24.5271L14.2348 21.4593L18.475 34.3785H14.812C14.4834 34.3785 14.2172 34.6468 14.2172 34.9778C14.2172 35.3087 14.4834 35.577 14.812 35.577H23.5124C23.8409 35.577 24.1071 35.3087 24.1071 34.9778C24.1071 34.6468 23.841 34.3786 23.5124 34.3786ZM1.18956 28.6344V20.7852H6.25346V27.6362L1.18956 28.6344ZM11.5496 34.5158H2.82656L2.27143 29.6423L6.96236 28.7176C7.24151 28.6626 7.44294 28.4161 7.44294 28.1295V20.7852H13.1143L12.8325 23.2578C11.9154 22.2273 11.13 21.5091 11.0881 21.4709C10.8446 21.2491 10.4685 21.2681 10.2481 21.5136C10.0279 21.7591 10.0467 22.1379 10.2903 22.36C11.017 23.0224 11.8838 23.926 12.6478 24.879L11.5496 34.5158ZM14.5375 29.0191C14.4125 29.4772 13.9827 29.8128 13.2594 30.0201L13.6816 26.3145C14.3349 27.3519 14.7241 28.3353 14.5375 29.0191Z" fill="#42ABE6"/>
<path d="M1.56983 3.16327C2.43543 3.16327 3.13973 2.45375 3.13973 1.58164C3.13973 0.709519 2.43543 0 1.56983 0C0.704222 0 0 0.709519 0 1.58164C0 2.45375 0.704222 3.16327 1.56983 3.16327ZM1.56983 1.19843C1.77959 1.19843 1.95017 1.3703 1.95017 1.58156C1.95017 1.79281 1.77959 1.96468 1.56983 1.96468C1.36015 1.96468 1.18956 1.79281 1.18956 1.58156C1.18956 1.3703 1.36015 1.19843 1.56983 1.19843Z" transform="translate(1.64136 15.9539)" fill="#42ABE6"/>
<path d="M2.08697 4.2055C3.23783 4.2055 4.17402 3.26219 4.17402 2.10275C4.17402 0.943309 3.23776 0 2.08697 0C0.936187 0 0 0.943309 0 2.10275C0 3.26219 0.936187 4.2055 2.08697 4.2055ZM2.08697 1.19843C2.58183 1.19843 2.98446 1.60409 2.98446 2.10267C2.98446 2.60125 2.58183 3.00691 2.08697 3.00691C1.59211 3.00691 1.18956 2.60125 1.18956 2.10267C1.18956 1.60409 1.59211 1.19843 2.08697 1.19843Z" transform="translate(6.04102 12.8343)" fill="#42ABE6"/>
<path d="M0.0446494 0.827009C0.141242 1.05712 0.373841 1.20894 0.623015 1.19623C0.871317 1.18353 1.09012 1.01102 1.16276 0.771718C1.32105 0.250046 0.729045 -0.200754 0.273363 0.0928817C0.0348952 0.246531 -0.0655834 0.563017 0.0446494 0.827009C0.0597966 0.862965 0.0296609 0.790974 0.0446494 0.827009Z" transform="translate(4.60522 12.5461)" fill="#42ABE6"/>
</g>
</svg>
