<svg width="124" height="124" viewBox="0 0 124 124" fill="none" xmlns="http://www.w3.org/2000/svg">
<path d="M97.3991 95.4521V101.717C97.3991 105.463 100.436 108.5 104.182 108.5C107.928 108.5 110.965 105.463 110.965 101.717V9.6875C110.965 4.33734 106.627 0 101.277 0H82.3864H16.9168H9.6875C4.33734 0 0 4.33734 0 9.6875V95.4521H97.3991Z" transform="translate(10.6136 13.0781)" fill="white"/>
<path opacity="0.2" d="M105.594 6.2666V0.0055728L105.591 0H0V6.2666C0 10.0118 3.03606 13.0479 6.78125 13.0479H112.374C108.629 13.0471 105.594 10.0113 105.594 6.2666Z" transform="translate(2.42188 108.53)" fill="#000080"/>
<path opacity="0.2" d="M110.68 20.1016H0V9.6875C0 4.33734 4.33734 0 9.6875 0H100.992C106.342 0 110.68 4.33734 110.68 9.6875V20.1016Z" transform="translate(10.7773 13.0781)" fill="#FFC850"/>
<g opacity="0.2">
<path opacity="0.6" d="M6.78125 13.5625C3.03606 13.5625 0 10.5264 0 6.78125C0 3.03606 3.03606 0 6.78125 0C10.5264 0 13.5625 3.03606 13.5625 6.78125C13.5625 10.5264 10.5264 13.5625 6.78125 13.5625Z" transform="translate(48.0125 76.0469)" fill="#000080"/>
<path opacity="0.6" d="M6.78125 13.5625C3.03606 13.5625 0 10.5264 0 6.78125C0 3.03606 3.03606 0 6.78125 0C10.5264 0 13.5625 3.03606 13.5625 6.78125C13.5625 10.5264 10.5264 13.5625 6.78125 13.5625Z" transform="translate(70.6166 76.0469)" fill="#000080"/>
</g>
<path opacity="0.7" d="M6.78125 13.5625C3.03606 13.5625 0 10.5264 0 6.78125C0 3.03606 3.03606 0 6.78125 0C10.5264 0 13.5625 3.03606 13.5625 6.78125C13.5625 10.5264 10.5264 13.5625 6.78125 13.5625Z" transform="translate(93.2209 76.0469)" fill="#F2427F"/>
<g opacity="0.2">
<path d="M6.78125 13.5625C3.03606 13.5625 0 10.5264 0 6.78125C0 3.03606 3.03606 0 6.78125 0C10.5264 0 13.5625 3.03606 13.5625 6.78125C13.5625 10.5264 10.5264 13.5625 6.78125 13.5625Z" transform="translate(25.4084 50.8594)" fill="#000080"/>
<path d="M6.78125 13.5625C3.03606 13.5625 0 10.5264 0 6.78125C0 3.03606 3.03606 0 6.78125 0C10.5264 0 13.5625 3.03606 13.5625 6.78125C13.5625 10.5264 10.5264 13.5625 6.78125 13.5625Z" transform="translate(70.6166 50.8594)" fill="#000080"/>
<path d="M6.78125 13.5625C3.03606 13.5625 0 10.5264 0 6.78125C0 3.03606 3.03606 0 6.78125 0C10.5264 0 13.5625 3.03606 13.5625 6.78125C13.5625 10.5264 10.5264 13.5625 6.78125 13.5625Z" transform="translate(48.0125 50.8594)" fill="#000080"/>
</g>
<path opacity="0.7" d="M6.78125 13.5625C3.03606 13.5625 0 10.5264 0 6.78125C0 3.03606 3.03606 0 6.78125 0C10.5264 0 13.5625 3.03606 13.5625 6.78125C13.5625 10.5264 10.5264 13.5625 6.78125 13.5625Z" transform="translate(93.2208 50.8594)" fill="#F2427F"/>
<path opacity="0.7" d="M17.4375 34.875C27.068 34.875 34.875 27.068 34.875 17.4375C34.875 7.80703 27.068 0 17.4375 0C7.80703 0 0 7.80703 0 17.4375C0 27.068 7.80703 34.875 17.4375 34.875Z" transform="translate(4.47559 73.625)" fill="#F2427F"/>
<path d="M4.84375 20.9492C2.16855 20.9492 0 18.7807 0 16.1055V4.84375C0 2.16855 2.16855 0 4.84375 0C7.51895 0 9.6875 2.16855 9.6875 4.84375V16.1055C9.6875 18.7807 7.51895 20.9492 4.84375 20.9492Z" transform="translate(33.0182 2.42188)" fill="white"/>
<path d="M4.84375 20.9492C2.16855 20.9492 0 18.7807 0 16.1055V4.84375C0 2.16855 2.16855 0 4.84375 0C7.51895 0 9.6875 2.16855 9.6875 4.84375V16.1055C9.6875 18.7807 7.51895 20.9492 4.84375 20.9492Z" transform="translate(88.2371 2.42188)" fill="white"/>
<path opacity="0.5" d="M99.5963 10.6562V11.4062H100.346H111.891C118.154 11.4062 123.25 16.5027 123.25 22.7656V114.795C123.25 119.457 119.456 123.25 114.795 123.25H9.20312C4.54278 123.25 0.75 119.457 0.75 114.797V108.53C0.75 107.607 1.49868 106.858 2.42188 106.858H8.97281H10.993L9.46223 105.54C5.38768 102.031 2.80351 96.844 2.80351 91.0625C2.80351 80.5262 11.3766 71.9531 21.9129 71.9531C32.4492 71.9531 41.0223 80.5262 41.0223 91.0625C41.0223 96.844 38.4381 102.031 34.3635 105.54L32.8328 106.858H34.853H59.0514C59.9746 106.858 60.7232 107.607 60.7232 108.53C60.7232 109.454 59.9746 110.202 59.0514 110.202H4.84375H4.09375V110.952V114.797C4.09375 117.615 6.3852 119.906 9.20312 119.906H106.692H107.949L107.351 118.8C106.707 117.607 106.341 116.244 106.341 114.795V110.952V110.202H105.591H79.8412C78.918 110.202 78.1693 109.454 78.1693 108.53C78.1693 107.607 78.918 106.858 79.8412 106.858H108.013C108.936 106.858 109.685 107.607 109.685 108.53V114.795C109.685 117.614 111.977 119.906 114.795 119.906C117.614 119.906 119.906 117.614 119.906 114.795V22.7656C119.906 18.3451 116.311 14.75 111.891 14.75H100.346H99.5963V15.5V18.5273C99.5963 22.1194 96.6727 25.043 93.0807 25.043C89.4886 25.043 86.565 22.1194 86.565 18.5273V15.5V14.75H85.815H45.1275H44.3775V15.5V18.5273C44.3775 22.1194 41.4539 25.043 37.8619 25.043C34.2698 25.043 31.3463 22.1194 31.3463 18.5273V15.4104V14.426L30.3972 14.6873C30.2492 14.728 30.1005 14.75 29.9506 14.75H20.3009C15.8804 14.75 12.2853 18.3451 12.2853 22.7656V30.7578V31.5078H13.0353H100.346C101.269 31.5078 102.018 32.2564 102.018 33.1797C102.018 34.103 101.269 34.8516 100.346 34.8516H13.0353H12.2853V35.6016V64.0182C12.2853 64.9415 11.5366 65.69 10.6134 65.69C9.69019 65.69 8.94151 64.9415 8.94151 64.0182V22.7656C8.94151 16.5027 14.038 11.4062 20.3009 11.4062H29.9506C30.101 11.4062 30.2495 11.4281 30.3964 11.4687L31.3463 11.7313V10.7459V7.26562C31.3463 3.67357 34.2698 0.75 37.8619 0.75C41.4539 0.75 44.3775 3.67357 44.3775 7.26562V10.6562V11.4062H45.1275H85.815H86.565V10.6562V7.26562C86.565 3.67357 89.4886 0.75 93.0807 0.75C96.6727 0.75 99.5963 3.67357 99.5963 7.26562V10.6562ZM37.8619 21.6992C39.6115 21.6992 41.0338 20.277 41.0338 18.5273V7.26562C41.0338 5.51599 39.6115 4.09375 37.8619 4.09375C36.1123 4.09375 34.69 5.51599 34.69 7.26562V18.5273C34.69 20.277 36.1123 21.6992 37.8619 21.6992ZM93.0807 21.6992C94.8303 21.6992 96.2525 20.277 96.2525 18.5273V7.26562C96.2525 5.51599 94.8303 4.09375 93.0807 4.09375C91.331 4.09375 89.9088 5.51599 89.9088 7.26562V18.5273C89.9088 20.277 91.331 21.6992 93.0807 21.6992ZM21.9129 75.2969C13.219 75.2969 6.14726 82.3686 6.14726 91.0625C6.14726 99.7564 13.219 106.828 21.9129 106.828C30.6068 106.828 37.6785 99.7564 37.6785 91.0625C37.6785 82.3686 30.6068 75.2969 21.9129 75.2969Z" fill="black" stroke="#FAF5FA" strokeWidth="1.5"/>
<path opacity="0.5" d="M2.42188 4.84375C3.05883 4.84375 3.68367 4.58461 4.1339 4.13414C4.58437 3.68367 4.84375 3.05883 4.84375 2.42188C4.84375 1.78492 4.58461 1.16008 4.1339 0.709608C3.68367 0.259139 3.05883 0 2.42188 0C1.78468 0 1.16008 0.259139 0.709615 0.709608C0.259146 1.16008 0 1.78492 0 2.42188C0 3.05883 0.258904 3.68367 0.709615 4.13414C1.16033 4.58461 1.78468 4.84375 2.42188 4.84375Z" transform="translate(109.285 30.7578)" fill="black"/>
<path opacity="0.5" d="M0.709615 0.707183C0.259146 1.16007 0 1.7825 0 2.41945C0 3.05883 0.258904 3.68125 0.709615 4.13414C1.16008 4.58461 1.78492 4.84133 2.42188 4.84133C3.05883 4.84133 3.68367 4.58461 4.1339 4.13414C4.58437 3.68125 4.84375 3.0564 4.84375 2.41945C4.84375 1.7825 4.58461 1.16007 4.1339 0.707183C3.68367 0.256715 3.05883 0 2.42188 0C1.78492 0 1.16008 0.256715 0.709615 0.707183Z" transform="translate(68.1952 106.11)" fill="black"/>
<path opacity="0.5" d="M17.6562 9.20312C17.6562 13.8635 13.8635 17.6562 9.20312 17.6562C4.54278 17.6562 0.75 13.8635 0.75 9.20312C0.75 4.54278 4.54278 0.75 9.20312 0.75C13.8635 0.75 17.6562 4.54278 17.6562 9.20312ZM14.3125 9.20312C14.3125 6.3852 12.021 4.09375 9.20312 4.09375C6.3852 4.09375 4.09375 6.3852 4.09375 9.20312C4.09375 12.021 6.3852 14.3125 9.20312 14.3125C12.021 14.3125 14.3125 12.021 14.3125 9.20312Z" transform="translate(45.5906 73.625)" fill="black" stroke="#FAF5FA" strokeWidth="1.5"/>
<path opacity="0.5" d="M17.6562 9.20312C17.6562 13.8635 13.8635 17.6562 9.20312 17.6562C4.54278 17.6562 0.75 13.8635 0.75 9.20312C0.75 4.54278 4.54278 0.75 9.20312 0.75C13.8635 0.75 17.6562 4.54278 17.6562 9.20312ZM14.3125 9.20312C14.3125 6.3852 12.021 4.09375 9.20312 4.09375C6.3852 4.09375 4.09375 6.3852 4.09375 9.20312C4.09375 12.021 6.3852 14.3125 9.20312 14.3125C12.021 14.3125 14.3125 12.021 14.3125 9.20312Z" transform="translate(68.1947 73.625)" fill="black" stroke="#FAF5FA" strokeWidth="1.5"/>
<path opacity="0.5" d="M17.6562 9.20312C17.6562 13.8635 13.8635 17.6562 9.20312 17.6562C4.54278 17.6562 0.75 13.8635 0.75 9.20312C0.75 4.54278 4.54278 0.75 9.20312 0.75C13.8635 0.75 17.6562 4.54278 17.6562 9.20312ZM14.3125 9.20312C14.3125 6.3852 12.021 4.09375 9.20312 4.09375C6.3852 4.09375 4.09375 6.3852 4.09375 9.20312C4.09375 12.021 6.3852 14.3125 9.20312 14.3125C12.021 14.3125 14.3125 12.021 14.3125 9.20312Z" transform="translate(90.7991 73.625)" fill="black" stroke="#FAF5FA" strokeWidth="1.5"/>
<path opacity="0.5" d="M9.20312 0.75C13.8635 0.75 17.6562 4.54278 17.6562 9.20312C17.6562 13.8635 13.8635 17.6562 9.20312 17.6562C4.54278 17.6562 0.75 13.8635 0.75 9.20312C0.75 4.54278 4.54278 0.75 9.20312 0.75ZM9.20312 4.09375C6.3852 4.09375 4.09375 6.3852 4.09375 9.20312C4.09375 12.021 6.3852 14.3125 9.20312 14.3125C12.021 14.3125 14.3125 12.021 14.3125 9.20312C14.3125 6.3852 12.021 4.09375 9.20312 4.09375Z" transform="translate(22.9866 48.4375)" fill="black" stroke="#FAF5FA" strokeWidth="1.5"/>
<path opacity="0.5" d="M17.6562 9.20312C17.6562 13.8635 13.8635 17.6562 9.20312 17.6562C4.54278 17.6562 0.75 13.8635 0.75 9.20312C0.75 4.54278 4.54278 0.75 9.20312 0.75C13.8635 0.75 17.6562 4.54278 17.6562 9.20312ZM14.3125 9.20312C14.3125 6.3852 12.021 4.09375 9.20312 4.09375C6.3852 4.09375 4.09375 6.3852 4.09375 9.20312C4.09375 12.021 6.3852 14.3125 9.20312 14.3125C12.021 14.3125 14.3125 12.021 14.3125 9.20312Z" transform="translate(68.1947 48.4375)" fill="black" stroke="#FAF5FA" strokeWidth="1.5"/>
<path opacity="0.5" d="M17.6562 9.20312C17.6562 13.8635 13.8635 17.6562 9.20312 17.6562C4.54278 17.6562 0.75 13.8635 0.75 9.20312C0.75 4.54278 4.54278 0.75 9.20312 0.75C13.8635 0.75 17.6562 4.54278 17.6562 9.20312ZM14.3125 9.20312C14.3125 6.3852 12.021 4.09375 9.20312 4.09375C6.3852 4.09375 4.09375 6.3852 4.09375 9.20312C4.09375 12.021 6.3852 14.3125 9.20312 14.3125C12.021 14.3125 14.3125 12.021 14.3125 9.20312Z" transform="translate(90.7991 48.4375)" fill="black" stroke="#FAF5FA" strokeWidth="1.5"/>
<path opacity="0.5" d="M17.6562 9.20312C17.6562 13.8635 13.8635 17.6562 9.20312 17.6562C4.54278 17.6562 0.75 13.8635 0.75 9.20312C0.75 4.54278 4.54278 0.75 9.20312 0.75C13.8635 0.75 17.6562 4.54278 17.6562 9.20312ZM14.3125 9.20312C14.3125 6.3852 12.021 4.09375 9.20312 4.09375C6.3852 4.09375 4.09375 6.3852 4.09375 9.20312C4.09375 12.021 6.3852 14.3125 9.20312 14.3125C12.021 14.3125 14.3125 12.021 14.3125 9.20312Z" transform="translate(45.5906 48.4375)" fill="black" stroke="#FAF5FA" strokeWidth="1.5"/>
<path opacity="0.5" d="M6.82988 9.6573L6.29954 9.12696L3.6043 6.43172C3.60428 6.43169 3.60426 6.43167 3.60423 6.43165C2.9512 5.77886 1.89303 5.77874 1.23964 6.43165C1.23959 6.43169 1.23955 6.43174 1.2395 6.43179M6.82988 9.6573L0.709307 5.90132L1.2395 6.43179M6.82988 9.6573L7.36021 9.12695L15.2471 1.23977C15.2472 1.23972 15.2472 1.23968 15.2473 1.23963C15.9007 0.586705 16.9589 0.586851 17.6119 1.2397C18.2647 1.89256 18.2647 2.95116 17.6119 3.60399L18.1422 4.13432L17.6119 3.60399L8.01219 13.2037C7.69833 13.5174 7.27309 13.6935 6.82987 13.6935C6.3867 13.6935 5.96151 13.5174 5.64766 13.2038C5.64762 13.2038 5.64759 13.2037 5.64755 13.2037L1.2397 8.79632L0.709388 9.3265L1.23961 8.79622M6.82988 9.6573L1.23961 8.79622M1.2395 6.43179C0.586858 7.08458 0.586773 8.14311 1.23961 8.79622M1.2395 6.43179L1.23961 8.79622" transform="translate(12.3987 84.4508)" fill="black" stroke="#FAF5FA" strokeWidth="1.5"/>
</svg>
